<svg width="50" height="50" viewBox="0 0 50 50" fill="none" xmlns="http://www.w3.org/2000/svg">
<path d="M17.7491 19.5991L19.6453 16.1128L21.3956 18.0328L17.7491 19.5991Z" fill="white"/>
<path d="M20 2.91992L22.0833 0.839844C22.6042 0.3125 23.4375 0 24.3099 0C25.8333 0 27.0833 0.9375 27.0833 2.08008V4.24805C27.0833 5.52734 27.7865 6.75781 29.0234 7.63672L40.0521 15.5273C46.4062 20.0781 50 26.3867 50 32.9785C50 42.3828 39.8437 50 27.3047 50H25C11.1979 50 0 41.6016 0 31.25V30.8789C0 26.1133 2.52604 21.543 7.01823 18.1738L8.5 13.5C9.04687 13.0898 8.77604 17.1875 9.55729 17.1875C11.1849 17.1875 12 11.7793 12 13L12.5 28.125C12.5 31.5723 16.237 34.375 20.8333 34.375C25.4297 34.375 29.1667 31.5723 29.1667 28.125V27.7441C29.1667 25.9863 28.2292 24.2969 26.5755 23.0566L21.5495 19.2871C18.4245 16.9434 17.5 16.3203 17.5 13C17.5 10.2949 17.8385 5.07812 20 2.91992Z" fill="url(#paint0_linear_109_27)"/>
<circle cx="29" cy="13" r="2" fill="white"/>
<path d="M27.2329 12.9476C27.2892 13.3059 27.4734 13.6317 27.7515 13.8646C28.0296 14.0975 28.3826 14.2218 28.7452 14.2144C29.1079 14.207 29.4556 14.0684 29.7239 13.8244C29.9923 13.5804 30.1631 13.2473 30.2048 12.887C30.2464 12.5267 30.1561 12.1635 29.9506 11.8646C29.745 11.5658 29.4381 11.3515 29.0868 11.2616C28.7354 11.1716 28.3633 11.212 28.0394 11.3753C27.7155 11.5386 27.4618 11.8137 27.3252 12.1497L27.7775 12.3336C27.8696 12.107 28.0408 11.9215 28.2592 11.8113C28.4777 11.7012 28.7286 11.6739 28.9656 11.7346C29.2026 11.7953 29.4096 11.9398 29.5483 12.1414C29.6869 12.3429 29.7478 12.5879 29.7197 12.8309C29.6916 13.0739 29.5764 13.2986 29.3954 13.4632C29.2144 13.6278 28.9799 13.7212 28.7353 13.7262C28.4907 13.7312 28.2526 13.6473 28.0651 13.4903C27.8775 13.3332 27.7532 13.1134 27.7153 12.8718L27.2329 12.9476Z" fill="black"/>
<defs>
<linearGradient id="paint0_linear_109_27" x1="64.2857" y1="0" x2="64.2857" y2="57.6352" gradientUnits="userSpaceOnUse">
<stop stop-color="#951010"/>
<stop offset="0.411458" stop-color="#FF0606"/>
<stop offset="0.640625" stop-color="white"/>
<stop offset="0.880208" stop-color="white"/>
</linearGradient>
</defs>
</svg>
