<svg width="113" height="50" viewBox="0 0 113 50" fill="none" xmlns="http://www.w3.org/2000/svg">
<path d="M55.5622 42.6394L53 10.0186L64.6712 12.2237C66.4148 12.2237 67.9029 12.6346 69.1355 13.4564C70.3755 14.2683 71.3188 15.4217 71.9651 16.9168C72.619 18.4019 72.9459 20.1494 72.9459 22.1593C72.9459 24.1791 72.6152 25.9167 71.9538 27.3721C71.2925 28.8177 70.3342 29.9266 69.0791 30.6988C67.8315 31.4711 66.3209 31.8573 64.5472 31.8573H58.4482V26.689H63.758C64.69 26.689 65.4641 26.5207 66.0804 26.184C66.6966 25.8474 67.1551 25.3424 67.4557 24.6692C67.7639 23.9959 67.9179 23.1593 67.9179 22.1593C67.9179 21.1494 67.7639 20.2979 67.4557 19.6049C67.1551 18.9118 66.6929 18.387 66.0691 18.0306C65.4528 17.6643 64.6749 17.4811 63.7355 17.4811H60.4436V42.6394H55.5622ZM68.0307 28.7979L75.3274 43.0849L68.3801 42.6394L62.766 28.7979H68.0307Z" fill="url(#paint0_linear_110_28)"/>
<path d="M83.9178 43.0849C82.1366 43.0849 80.6034 42.6097 79.3182 41.6592C78.0406 40.6988 77.056 39.3423 76.3646 37.5899C75.6731 35.8275 75.3274 33.7434 75.3274 31.3375C75.3274 28.9909 75.6731 26.9315 76.3646 25.1593C77.056 23.387 78.0293 22.0058 79.2844 21.0157C80.547 20.0257 82.0276 19.5306 83.7261 19.5306C84.8685 19.5306 87.571 14.8657 88.5556 15.3508C89.5476 15.8261 88.7729 21.4514 89.5094 22.4118C90.2535 23.3722 90.8322 24.5801 91.2455 26.0355C91.6589 27.481 91.8656 29.1741 91.8656 31.1147V32.8523H77.2439V28.9315H87.3449C87.3449 28.0206 87.1946 27.2137 86.894 26.5108C86.5933 25.8078 86.1762 25.2583 85.6426 24.8623C85.1165 24.4563 84.504 24.2533 83.805 24.2533C83.076 24.2533 82.4297 24.4761 81.866 24.9217C81.3099 25.3573 80.8739 25.9464 80.5583 26.689C80.2426 27.4216 80.0811 28.2385 80.0735 29.1394V32.8671C80.0735 33.9958 80.2314 34.9711 80.547 35.7929C80.8702 36.6146 81.3249 37.2483 81.9111 37.6938C82.4973 38.1394 83.1925 38.3622 83.9967 38.3622C84.5303 38.3622 85.0188 38.2631 85.4622 38.0651C85.9057 37.8671 86.2852 37.5701 86.6009 37.174C86.9165 36.778 87.157 36.2929 87.3224 35.7186L91.7641 36.1047C91.5386 37.5107 93.8577 43.7855 93.1587 44.835C92.4673 45.8746 88.7917 41.6394 87.6944 42.2235C86.6046 42.7978 85.3458 43.0849 83.9178 43.0849Z" fill="url(#paint1_linear_110_28)"/>
<path d="M101.38 43.0106C100.065 43.0106 98.8739 42.5651 97.8067 41.674C96.747 40.773 95.9052 39.4513 95.2814 37.7087C94.6651 35.9562 94.357 33.8077 94.357 31.2632C94.357 28.6494 94.6764 26.4761 95.3152 24.7434C95.9541 23.0009 92.7339 18.892 93.7937 18.0306C94.8609 17.1593 100.099 19.5306 101.369 19.5306C102.339 19.5306 103.147 19.7484 103.793 20.1841C104.447 20.6098 104.973 21.1445 105.371 21.788C105.777 22.4217 106.085 23.0454 106.296 23.6593H106.442V12.2237L113 5L111.233 42.6394H106.498V38.9859H106.296C106.07 39.6196 105.751 40.2483 105.337 40.872C104.931 41.4859 104.402 41.9958 103.748 42.4017C103.101 42.8077 102.312 43.0106 101.38 43.0106ZM102.902 37.976C103.676 37.976 104.33 37.6988 104.864 37.1443C105.405 36.58 105.818 35.7929 106.104 34.783C106.397 33.7731 106.544 32.5899 106.544 31.2335C106.544 29.8771 106.401 28.6989 106.115 27.6989C105.83 26.6989 105.416 25.9266 104.875 25.382C104.334 24.8375 103.676 24.5652 102.902 24.5652C102.113 24.5652 101.448 24.8474 100.907 25.4118C100.366 25.9761 99.9561 26.7583 99.6781 27.7583C99.4 28.7583 99.2609 29.9167 99.2609 31.2335C99.2609 32.5602 99.4 33.7335 99.6781 34.7533C99.9637 35.7632 100.373 36.5552 100.907 37.1295C101.448 37.6938 102.113 37.976 102.902 37.976Z" fill="url(#paint2_linear_110_28)"/>
<path d="M17.7491 19.5991L19.6453 16.1128L21.3956 18.0328L17.7491 19.5991Z" fill="white"/>
<path d="M20 2.91992L22.0833 0.839844C22.6042 0.3125 23.4375 0 24.3099 0C25.8333 0 27.0833 0.9375 27.0833 2.08008V4.24805C27.0833 5.52734 27.7865 6.75781 29.0234 7.63672L40.0521 15.5273C46.4062 20.0781 50 26.3867 50 32.9785C50 42.3828 39.8437 50 27.3047 50H25C11.1979 50 0 41.6016 0 31.25V30.8789C0 26.1133 2.52604 21.543 7.01823 18.1738L8.5 13.5C9.04687 13.0898 8.77604 17.1875 9.55729 17.1875C11.1849 17.1875 12 11.7793 12 13L12.5 28.125C12.5 31.5723 16.237 34.375 20.8333 34.375C25.4297 34.375 29.1667 31.5723 29.1667 28.125V27.7441C29.1667 25.9863 28.2292 24.2969 26.5755 23.0566L21.5495 19.2871C18.4245 16.9434 17.5 16.3203 17.5 13C17.5 10.2949 17.8385 5.07812 20 2.91992Z" fill="url(#paint3_linear_110_28)"/>
<circle cx="29" cy="13" r="2" fill="white"/>
<path d="M27.2329 12.9476C27.2892 13.3059 27.4734 13.6317 27.7515 13.8646C28.0296 14.0975 28.3826 14.2218 28.7452 14.2144C29.1079 14.207 29.4556 14.0684 29.7239 13.8244C29.9923 13.5804 30.1631 13.2473 30.2048 12.887C30.2464 12.5267 30.1561 12.1635 29.9506 11.8646C29.745 11.5658 29.4381 11.3515 29.0868 11.2616C28.7354 11.1716 28.3633 11.212 28.0394 11.3753C27.7155 11.5386 27.4618 11.8137 27.3252 12.1497L27.7775 12.3336C27.8696 12.107 28.0408 11.9215 28.2592 11.8113C28.4777 11.7012 28.7286 11.6739 28.9656 11.7346C29.2026 11.7953 29.4096 11.9398 29.5483 12.1414C29.6869 12.3429 29.7478 12.5879 29.7197 12.8309C29.6916 13.0739 29.5764 13.2986 29.3954 13.4632C29.2144 13.6278 28.9799 13.7212 28.7353 13.7262C28.4907 13.7312 28.2526 13.6473 28.0651 13.4903C27.8775 13.3332 27.7532 13.1134 27.7153 12.8718L27.2329 12.9476Z" fill="black"/>
<defs>
<linearGradient id="paint0_linear_110_28" x1="130.143" y1="5" x2="130.143" y2="51.1082" gradientUnits="userSpaceOnUse">
<stop stop-color="#951010"/>
<stop offset="0.411458" stop-color="#FF0606"/>
<stop offset="0.640625" stop-color="white"/>
<stop offset="0.880208" stop-color="white"/>
</linearGradient>
<linearGradient id="paint1_linear_110_28" x1="130.143" y1="5" x2="130.143" y2="51.1082" gradientUnits="userSpaceOnUse">
<stop stop-color="#951010"/>
<stop offset="0.411458" stop-color="#FF0606"/>
<stop offset="0.640625" stop-color="white"/>
<stop offset="0.880208" stop-color="white"/>
</linearGradient>
<linearGradient id="paint2_linear_110_28" x1="130.143" y1="5" x2="130.143" y2="51.1082" gradientUnits="userSpaceOnUse">
<stop stop-color="#951010"/>
<stop offset="0.411458" stop-color="#FF0606"/>
<stop offset="0.640625" stop-color="white"/>
<stop offset="0.880208" stop-color="white"/>
</linearGradient>
<linearGradient id="paint3_linear_110_28" x1="64.2857" y1="0" x2="64.2857" y2="57.6352" gradientUnits="userSpaceOnUse">
<stop stop-color="#951010"/>
<stop offset="0.411458" stop-color="#FF0606"/>
<stop offset="0.640625" stop-color="white"/>
<stop offset="0.880208" stop-color="white"/>
</linearGradient>
</defs>
</svg>
