<svg width="700" height="184" viewBox="0 0 700 184" fill="none" xmlns="http://www.w3.org/2000/svg">
<path d="M11.625 150.204L0 20.0272L52.9526 28.8271C60.8635 28.8271 67.615 30.4668 73.2072 33.7462C78.8335 36.9861 83.1129 41.5891 86.0454 47.5552C89.012 53.4818 90.4953 60.4554 90.4953 68.4761C90.4953 76.5363 88.9949 83.4705 85.9942 89.2785C82.9936 95.0471 78.646 99.4723 72.9515 102.554C67.2911 105.636 60.4373 107.177 52.39 107.177H24.7189V86.5523H48.8096C53.0378 86.5523 56.55 85.8806 59.3461 84.5373C62.1422 83.1939 64.2222 81.1788 65.5862 78.4921C66.9842 75.8054 67.6832 72.4667 67.6832 68.4761C67.6832 64.446 66.9842 61.0481 65.5862 58.2824C64.2222 55.5166 62.1251 53.4225 59.2949 52.0001C56.4989 50.5382 52.9696 49.8073 48.7073 49.8073H33.7721V150.204H11.625ZM68.1947 94.9681L101.3 151.982L69.7803 150.204L44.3086 94.9681H68.1947Z" fill="url(#paint0_linear_107_6)"/>
<path d="M140.275 151.982C132.194 151.982 125.238 150.086 119.407 146.293C113.61 142.46 109.143 137.047 106.006 130.054C102.869 123.021 101.3 114.704 101.3 105.103C101.3 95.7385 102.869 87.5203 106.006 80.4479C109.143 73.3755 113.559 67.8637 119.253 63.9126C124.982 59.9616 131.699 57.986 139.406 57.986C144.589 57.986 156.85 39.3701 161.317 41.3061C165.818 43.2026 162.303 65.6511 165.645 69.4837C169.02 73.3162 171.646 78.1365 173.521 83.9446C175.397 89.7132 176.334 96.4695 176.334 104.214V111.148H109.995V95.5015H155.824C155.824 91.8665 155.142 88.6464 153.778 85.8411C152.414 83.0358 150.522 80.843 148.101 79.2626C145.714 77.6426 142.935 76.8327 139.764 76.8327C136.456 76.8327 133.524 77.7216 130.966 79.4996C128.443 81.2381 126.465 83.589 125.033 86.5523C123.601 89.4761 122.868 92.7357 122.834 96.3312V111.207C122.834 115.711 123.55 119.603 124.982 122.882C126.448 126.162 128.511 128.691 131.171 130.469C133.83 132.246 136.985 133.135 140.633 133.135C143.054 133.135 145.271 132.74 147.282 131.95C149.294 131.16 151.016 129.975 152.448 128.394C153.88 126.814 154.972 124.878 155.722 122.586L175.874 124.127C174.851 129.738 185.373 154.778 182.202 158.966C179.065 163.115 162.388 146.214 157.41 148.545C152.465 150.836 146.754 151.982 140.275 151.982Z" fill="url(#paint1_linear_107_6)"/>
<path d="M219.503 151.686C213.536 151.686 208.132 149.908 203.29 146.352C198.482 142.756 194.663 137.482 191.832 130.528C189.036 123.534 187.638 114.961 187.638 104.806C187.638 94.3754 189.087 85.7028 191.986 78.7884C194.884 71.8345 180.274 55.4376 185.082 52.0001C189.924 48.5232 213.69 57.986 219.452 57.986C223.851 57.986 227.517 58.8553 230.449 60.5937C233.416 62.2927 235.803 64.4263 237.61 66.9945C239.451 69.5232 240.849 72.0123 241.804 74.462H242.469V28.8271L272.222 0L264.207 150.204H242.725V135.625H241.804C240.781 138.153 239.332 140.662 237.456 143.151C235.615 145.601 233.211 147.636 230.245 149.256C227.312 150.876 223.732 151.686 219.503 151.686ZM226.408 131.595C229.921 131.595 232.887 130.488 235.308 128.276C237.763 126.024 239.639 122.882 240.934 118.852C242.264 114.822 242.929 110.101 242.929 104.688C242.929 99.2748 242.281 94.573 240.986 90.5824C239.69 86.5918 237.814 83.51 235.359 81.3369C232.904 79.1638 229.921 78.0772 226.408 78.0772C222.828 78.0772 219.81 79.2033 217.355 81.4554C214.9 83.7075 213.042 86.8289 211.78 90.8195C210.518 94.81 209.888 99.4328 209.888 104.688C209.888 109.982 210.518 114.664 211.78 118.734C213.076 122.764 214.934 125.925 217.355 128.216C219.81 130.469 222.828 131.595 226.408 131.595Z" fill="url(#paint2_linear_107_6)"/>
<path d="M272.222 151.982L277.984 41.3061L302.888 59.1713V75.2325H303.808C305.445 69.8985 308.173 65.6906 311.992 62.6088C315.811 59.5269 320.38 57.986 325.7 57.986C331.087 57.986 335.673 59.5467 339.458 62.668C343.243 65.7499 345.767 69.938 347.028 75.2325H347.847C349.449 70.0171 352.348 65.8487 356.542 62.7273C360.77 59.5665 393.929 47.5552 399.691 47.5552C407.023 47.5552 384.81 60.6925 389.379 66.1055C393.982 71.4789 396.284 79.1045 396.284 88.9822V150.204L378.446 184L374.546 93.9606C374.546 88.9032 373.387 85.1102 371.068 82.5815C368.749 80.0528 365.851 78.7884 362.373 78.7884C358.417 78.7884 355.331 80.2503 353.115 83.1741C350.899 86.0584 349.79 89.8712 349.79 94.6125V150.204L319.753 151.982L328.666 93.4272C328.666 88.9625 327.558 85.4065 325.342 82.7593C323.159 80.112 320.278 78.7884 316.698 78.7884C314.277 78.7884 312.094 79.4996 310.151 80.922C308.241 82.3049 306.724 84.2607 305.598 86.7894C304.473 89.2785 303.911 92.2023 303.911 95.5608V150.204L272.222 151.982Z" fill="url(#paint3_linear_107_6)"/>
<path d="M448.992 151.982C441.047 151.982 434.176 150.026 428.379 146.115C422.617 142.164 418.167 136.672 415.03 129.639C411.893 122.566 410.324 114.368 410.324 105.043C410.324 95.6398 411.893 87.4215 415.03 80.3886C418.167 73.3162 411.933 55.9117 417.695 52.0001C423.492 48.0491 441.047 57.986 448.992 57.986C456.937 57.986 474.587 48.0491 480.35 52.0001C486.147 55.9117 479.817 73.3162 482.954 80.3886C486.091 87.4215 487.66 95.6398 487.66 105.043C487.66 114.368 486.091 122.566 482.954 129.639C479.817 136.672 475.35 142.164 469.553 146.115C463.791 150.026 456.937 151.982 448.992 151.982ZM449.094 132.424C452.709 132.424 455.726 131.239 458.147 128.868C460.568 126.458 462.393 123.179 463.62 119.03C464.882 114.882 465.513 110.16 465.513 104.866C465.513 99.5711 464.882 94.8496 463.62 90.7009C462.393 86.5523 460.568 83.2729 458.147 80.8627C455.726 78.4526 452.709 77.2475 449.094 77.2475C445.446 77.2475 442.377 78.4526 439.888 80.8627C437.432 83.2729 435.574 86.5523 434.312 90.7009C433.085 94.8496 432.471 99.5711 432.471 104.866C432.471 110.16 433.085 114.882 434.312 119.03C435.574 123.179 437.432 126.458 439.888 128.868C442.377 131.239 445.446 132.424 449.094 132.424Z" fill="url(#paint4_linear_107_6)"/>
<path d="M578.292 66.1055L545.074 150.204H520.523L487.66 41.3061L516.073 59.1713L532.389 124.305H533.207L548.405 77.2475L578.292 66.1055Z" fill="url(#paint5_linear_107_6)"/>
<path d="M575.051 158.132L586.299 62.7273L605.479 59.1713V150.204L575.051 158.132ZM594.636 47.4367C591.397 47.4367 588.618 46.1921 586.299 43.7029C584.014 41.1742 582.872 38.1516 582.872 34.6352C582.872 31.1582 584.014 28.1752 586.299 25.686C588.618 23.1573 602.24 12.9342 605.479 12.9342C608.719 12.9342 600.637 23.1573 602.922 25.686C605.241 28.1752 606.4 31.1582 606.4 34.6352C606.4 38.1516 605.241 41.1742 602.922 43.7029C600.637 46.1921 597.875 47.4367 594.636 47.4367Z" fill="url(#paint6_linear_107_6)"/>
<path d="M658.737 151.982C650.656 151.982 643.7 150.086 637.869 146.293C632.072 142.46 627.605 137.047 624.468 130.054C621.331 123.021 619.763 114.704 619.763 105.103C619.763 95.7385 621.331 87.5203 624.468 80.4479C627.605 73.3755 627.69 51.5063 633.385 47.5552C639.113 43.6041 650.162 57.986 657.868 57.986C663.051 57.986 667.876 58.954 672.343 60.8901C676.844 62.7866 680.765 65.6511 684.107 69.4837C687.483 73.3162 690.108 78.1365 691.984 83.9446C693.859 89.7132 694.797 96.4695 694.797 104.214V111.148H628.458V95.5015H674.286C674.286 91.8665 673.604 88.6464 672.24 85.8411C670.876 83.0358 668.984 80.843 666.563 79.2626C664.176 77.6426 661.397 76.8327 658.226 76.8327C654.918 76.8327 651.986 77.7216 649.428 79.4996C646.905 81.2381 644.927 83.589 643.495 86.5523C642.063 89.4761 641.33 92.7357 641.296 96.3312V111.207C641.296 115.711 642.012 119.603 643.444 122.882C644.91 126.162 646.973 128.691 649.633 130.469C652.293 132.246 655.447 133.135 659.095 133.135C661.516 133.135 663.733 132.74 665.745 131.95C667.756 131.16 669.478 129.975 670.911 128.394C672.343 126.814 673.434 124.878 674.184 122.586L700 133.135C698.977 138.746 690.928 146.016 687.757 150.204C684.62 154.353 680.85 146.214 675.872 148.545C670.928 150.836 665.216 151.982 658.737 151.982Z" fill="url(#paint7_linear_107_6)"/>
<defs>
<linearGradient id="paint0_linear_107_6" x1="900" y1="0" x2="900" y2="212.098" gradientUnits="userSpaceOnUse">
<stop stop-color="#951010"/>
<stop offset="0.411458" stop-color="#FF0606"/>
<stop offset="0.640625" stop-color="white"/>
<stop offset="0.880208" stop-color="white"/>
</linearGradient>
<linearGradient id="paint1_linear_107_6" x1="900" y1="0" x2="900" y2="212.098" gradientUnits="userSpaceOnUse">
<stop stop-color="#951010"/>
<stop offset="0.411458" stop-color="#FF0606"/>
<stop offset="0.640625" stop-color="white"/>
<stop offset="0.880208" stop-color="white"/>
</linearGradient>
<linearGradient id="paint2_linear_107_6" x1="900" y1="0" x2="900" y2="212.098" gradientUnits="userSpaceOnUse">
<stop stop-color="#951010"/>
<stop offset="0.411458" stop-color="#FF0606"/>
<stop offset="0.640625" stop-color="white"/>
<stop offset="0.880208" stop-color="white"/>
</linearGradient>
<linearGradient id="paint3_linear_107_6" x1="900" y1="0" x2="900" y2="212.098" gradientUnits="userSpaceOnUse">
<stop stop-color="#951010"/>
<stop offset="0.411458" stop-color="#FF0606"/>
<stop offset="0.640625" stop-color="white"/>
<stop offset="0.880208" stop-color="white"/>
</linearGradient>
<linearGradient id="paint4_linear_107_6" x1="900" y1="0" x2="900" y2="212.098" gradientUnits="userSpaceOnUse">
<stop stop-color="#951010"/>
<stop offset="0.411458" stop-color="#FF0606"/>
<stop offset="0.640625" stop-color="white"/>
<stop offset="0.880208" stop-color="white"/>
</linearGradient>
<linearGradient id="paint5_linear_107_6" x1="900" y1="0" x2="900" y2="212.098" gradientUnits="userSpaceOnUse">
<stop stop-color="#951010"/>
<stop offset="0.411458" stop-color="#FF0606"/>
<stop offset="0.640625" stop-color="white"/>
<stop offset="0.880208" stop-color="white"/>
</linearGradient>
<linearGradient id="paint6_linear_107_6" x1="900" y1="0" x2="900" y2="212.098" gradientUnits="userSpaceOnUse">
<stop stop-color="#951010"/>
<stop offset="0.411458" stop-color="#FF0606"/>
<stop offset="0.640625" stop-color="white"/>
<stop offset="0.880208" stop-color="white"/>
</linearGradient>
<linearGradient id="paint7_linear_107_6" x1="900" y1="0" x2="900" y2="212.098" gradientUnits="userSpaceOnUse">
<stop stop-color="#951010"/>
<stop offset="0.411458" stop-color="#FF0606"/>
<stop offset="0.640625" stop-color="white"/>
<stop offset="0.880208" stop-color="white"/>
</linearGradient>
</defs>
</svg>
